<svg width="121" height="40" viewBox="0 0 121 40" fill="none" xmlns="http://www.w3.org/2000/svg">
<path fill-rule="evenodd" clip-rule="evenodd" d="M38.1304 0.0302131C38.0872 0.0554942 36.8917 0.444898 35.4736 0.895585C34.0556 1.34627 32.8954 1.74 32.8954 1.7705C32.8955 1.82208 38.2233 3.30102 38.3885 3.29532C38.5938 3.28817 43.889 1.82011 43.889 1.77024C43.889 1.70725 38.6918 0.0378401 38.3922 0.00461195C38.2914 -0.00658854 38.1736 0.00493196 38.1304 0.0302131ZM53.4692 0.0305864C53.426 0.0560276 52.2304 0.445645 50.8124 0.896385C49.3943 1.34712 48.2342 1.74064 48.2344 1.77093C48.2345 1.80122 49.4607 2.16012 50.9592 2.56846L53.6837 3.31094L54.0607 3.21931C55.2839 2.92197 59.2525 1.81269 59.2455 1.77013C59.2356 1.71007 53.9985 0.0328265 53.7309 0.00402526C53.6301 -0.00685522 53.5123 0.00509197 53.4692 0.0305864ZM31.5168 2.79492C31.4464 2.86666 31.4765 11.649 31.5473 11.706C31.6215 11.7658 37.4404 13.7465 37.5418 13.7465C37.5941 13.7465 37.6048 12.8101 37.5942 9.15291L37.5808 4.55932L34.5968 3.65944C31.3937 2.69348 31.5683 2.74244 31.5168 2.79492ZM42.2138 3.64915C40.6158 4.1337 39.2789 4.55468 39.2429 4.58465C39.1469 4.66455 39.1469 13.7465 39.2429 13.7465C39.3956 13.7465 45.1436 11.7595 45.2035 11.686C45.3112 11.5538 45.3056 2.79135 45.1978 2.77791C45.1546 2.77257 43.8118 3.16459 42.2138 3.64915ZM46.8976 2.82468C46.8836 2.86207 46.8782 4.88275 46.8857 7.31507L46.8992 11.7374L49.8566 12.742C51.4832 13.2945 52.8438 13.7465 52.8802 13.7465C52.9329 13.7465 52.9436 12.8231 52.9329 9.15264L52.9195 4.55873L50.0402 3.68888C46.6189 2.65518 46.9291 2.74052 46.8976 2.82468ZM57.5499 3.65725C55.9504 4.14613 54.6135 4.56551 54.579 4.58924C54.4854 4.65356 54.488 13.7465 54.5816 13.7465C54.6831 13.7465 60.5018 11.7656 60.5761 11.7058C60.6836 11.6192 60.6445 2.79103 60.5365 2.77796C60.4933 2.77273 59.1493 3.16843 57.5499 3.65725ZM12.5833 13.9546C9.57287 14.9261 9.82023 14.839 9.88729 14.904C9.91608 14.9319 11.1576 15.2857 12.6462 15.6902L15.3527 16.4255L18.0756 15.6904C20.6848 14.986 20.9611 14.9037 20.9056 14.8473C20.8459 14.7867 15.4256 13.1071 15.3069 13.1124C15.2342 13.1158 14.0086 13.4947 12.5833 13.9546ZM27.8959 13.9666C26.4275 14.4371 25.215 14.8333 25.2014 14.8472C25.146 14.9036 25.4197 14.9859 28.0048 15.6905L30.7005 16.4253L33.4339 15.6898C36.0004 14.9991 36.3036 14.9076 36.2396 14.8425C36.1903 14.7921 30.7767 13.1065 30.672 13.1089C30.6136 13.1102 29.3643 13.4961 27.8959 13.9666ZM45.3025 15.3529C43.2021 15.5978 41.7004 16.7768 41.2905 18.5029C41.121 19.2167 41.1795 19.2565 42.6368 19.4184C43.936 19.5628 44.1508 19.5126 44.1508 19.0645C44.1508 18.1514 45.7176 17.4442 46.6771 17.9242C47.2228 18.1972 47.3937 18.5623 47.4352 19.5447C47.4686 20.3331 47.5606 20.2618 46.3495 20.3871C42.4565 20.7897 40.8812 22.0648 40.8812 24.8137C40.8812 27.1241 42.07 28.3339 44.334 28.3276C45.7949 28.3235 46.7255 27.938 47.6554 26.9518C47.8928 26.7 47.9109 26.7052 48.1552 27.0942C48.4019 27.4871 49.0599 28.1783 49.2617 28.2564C49.4918 28.3455 49.6396 28.2543 50.5199 27.4798C51.7735 26.3769 51.7376 26.4616 51.2516 25.7557C50.6031 24.8137 50.6321 25.0062 50.5891 21.3468C50.5494 17.9635 50.5522 17.9947 50.222 17.2899C49.5517 15.8594 47.5882 15.0863 45.3025 15.3529ZM74.663 15.354C72.6612 15.5878 71.2523 16.6204 70.7194 18.2446C70.4203 19.1559 70.5118 19.252 71.818 19.3994C73.352 19.5726 73.327 19.5788 73.5262 18.9777C74.0094 17.52 76.1614 17.2799 76.6566 18.6285C76.7875 18.9849 76.8703 20.1605 76.769 20.2243C76.7342 20.2463 76.3128 20.3092 75.8324 20.3642C73.1708 20.6691 72.1205 21.0547 71.2039 22.0632C69.895 23.5036 69.8646 26.109 71.1414 27.4292C72.5005 28.8345 75.1081 28.6843 76.8516 27.1004C77.3056 26.6879 77.2243 26.6795 77.5644 27.1738C78.0888 27.9357 78.632 28.3738 78.9136 28.2619C79.0329 28.2144 80.7747 26.7087 80.8608 26.5785C80.9676 26.417 80.8895 26.1868 80.5578 25.6856C79.9549 24.7747 79.9916 25.0339 79.9547 21.4268C79.9195 17.995 79.92 18.0011 79.5811 17.2803C78.916 15.8655 76.9331 15.0889 74.663 15.354ZM58.6257 15.4336C57.6073 15.5943 56.7805 16.2118 56.3317 17.1466C56.1653 17.4933 56.139 17.4302 56.139 16.6841C56.139 16.0204 56.134 15.9887 56.0035 15.8307L55.868 15.6666H54.6715C53.4821 15.6666 53.4741 15.6673 53.3281 15.7953L53.1812 15.924V21.9335V27.943L53.3281 28.0718C53.5584 28.2735 55.8927 28.2735 56.123 28.0718L56.2699 27.9431L56.2979 23.8983C56.3284 19.477 56.3241 19.5383 56.6426 18.9845C57.0689 18.2432 58.2913 18.1255 58.7803 18.7788C59.1526 19.276 59.1447 19.1755 59.1746 23.8184L59.2015 27.9966L59.3251 28.0985C59.5146 28.2547 61.9249 28.2548 62.1143 28.0985L62.2379 27.9966L62.2663 24.005C62.2964 19.7628 62.3003 19.6975 62.5564 19.1794C63.0273 18.2267 64.4933 18.0939 64.9513 18.9625C65.1737 19.3842 65.1927 19.7869 65.1943 24.1031L65.1957 27.9794L65.3336 28.0899C65.4645 28.1948 65.5362 28.2005 66.725 28.2005H67.9783L68.1337 28.0422L68.289 27.884L68.2721 22.9887C68.2554 18.133 68.2543 18.09 68.1401 17.676C67.3956 14.9783 63.519 14.5966 62.2217 17.0933C62.0165 17.4883 61.9869 17.4965 61.8391 17.2C61.1924 15.9017 59.958 15.2232 58.6257 15.4336ZM96.5275 15.4566C93.8712 15.8202 92.1505 18.3672 92.1571 21.9258C92.1654 26.3753 94.8549 29.1365 98.3707 28.3051C101.283 27.6164 102.95 23.9589 102.148 20.015C101.511 16.8827 99.2867 15.0788 96.5275 15.4566ZM109.589 15.4339C108.422 15.6075 107.748 16.1171 107.183 17.2533C106.944 17.7344 106.919 17.6883 106.919 16.7576C106.919 15.9484 106.916 15.9253 106.791 15.7975L106.662 15.6666H105.465H104.269L104.128 15.8162L103.987 15.9657V21.919V27.8723L104.123 28.0364L104.259 28.2005H105.531C106.705 28.2005 106.812 28.1926 106.926 28.0985L107.05 27.9967L107.082 24.1917C107.116 20.2084 107.118 20.1745 107.368 19.4691C107.819 18.193 109.293 17.9049 109.832 18.9874C110.096 19.5193 110.109 19.7459 110.111 24.0027L110.112 27.9386L110.241 28.0695L110.369 28.2005H111.647C112.868 28.2005 112.932 28.1954 113.066 28.088L113.206 27.9756L113.188 23.2212C113.167 17.884 113.172 17.9533 112.766 17.0831C112.233 15.9386 110.888 15.2406 109.589 15.4339ZM82.9164 15.6743C82.6916 15.8007 82.6808 15.8583 82.6808 16.9263V17.9523L82.8187 18.0628C82.9526 18.1701 83.0134 18.1734 84.8835 18.1734C85.9432 18.1734 86.8219 18.1925 86.8361 18.2158C86.8502 18.2391 85.8614 19.7212 84.6388 21.5092C82.0445 25.3032 82.262 24.8496 82.262 26.4674C82.262 28.0654 82.2659 28.0696 83.305 27.6158C85.5168 26.6498 88.2736 26.6928 90.2798 27.7247C90.6494 27.9147 90.8129 27.9205 90.9807 27.7495C91.1607 27.5662 91.1813 25.6734 91.0072 25.3255C90.7316 24.7753 88.9212 24.1767 87.3269 24.1086C86.931 24.0916 86.6071 24.0556 86.6071 24.0286C86.6071 24.0015 87.5036 22.6743 88.5994 21.0792C91.1126 17.421 90.8977 17.8231 90.8989 16.7763C90.8998 15.9677 90.8955 15.9341 90.7735 15.7896L90.6472 15.6399L86.8341 15.6276C84.1285 15.6189 82.9907 15.6324 82.9164 15.6743ZM8.5 20.3343V24.8313L11.495 25.8486C13.5666 26.5523 14.5068 26.8488 14.5445 26.8105C14.5812 26.773 14.5988 25.2854 14.5988 22.2174V17.6798L12.3216 16.9912C11.0691 16.6124 9.69689 16.1979 9.27217 16.0699L8.5 15.8372V20.3343ZM19.101 16.7854L16.1694 17.6782L16.156 22.2476C16.145 25.9961 16.155 26.8217 16.2118 26.8439C16.2718 26.8674 22.0623 24.9104 22.2122 24.8159C22.2512 24.7914 22.2682 23.4326 22.2682 20.3303V15.8799L22.1504 15.8863C22.0856 15.8897 20.7134 16.2943 19.101 16.7854ZM23.8387 20.3269C23.8387 23.8209 23.8528 24.7852 23.9042 24.8266C24.0398 24.9358 29.8689 26.8783 29.9163 26.8301C29.9449 26.8009 29.9589 24.9424 29.951 22.23L29.9376 17.6788L26.9798 16.7815C25.353 16.288 23.9807 15.8832 23.9303 15.8821C23.8438 15.88 23.8387 16.1264 23.8387 20.3269ZM34.4659 16.7828L31.5081 17.6796L31.4947 22.2483C31.4838 25.9612 31.4941 26.8218 31.5495 26.8435C31.6078 26.8663 36.9552 25.0689 37.4368 24.8646L37.6069 24.7924V20.3362C37.6069 16.1265 37.6019 15.8801 37.5153 15.883C37.465 15.8847 36.0927 16.2896 34.4659 16.7828ZM97.7763 17.911C98.5765 18.1374 98.932 19.1927 98.9983 21.5372C99.0853 24.6221 98.5493 25.9733 97.2343 25.9839C96.0456 25.9934 95.575 24.9366 95.5216 22.1384C95.456 18.6988 96.1253 17.4439 97.7763 17.911ZM47.4172 23.0002C47.4133 23.5964 47.3854 23.9645 47.3245 24.2215C46.7899 26.4784 44.2728 26.7121 44.1618 24.5151C44.0854 23.0011 45.212 22.0927 47.1086 22.1392L47.4227 22.1469L47.4172 23.0002ZM76.7741 22.9736C76.7645 23.4283 76.7244 23.9631 76.6849 24.1619C76.2153 26.5259 73.5194 26.7176 73.5194 24.387C73.5194 22.9314 74.6203 22.0949 76.4772 22.1393L76.7913 22.1469L76.7741 22.9736ZM20.2265 27.0744C17.3114 28.0152 17.4683 27.9615 17.5064 28.0042C17.522 28.0216 18.7706 28.3736 20.281 28.7863L23.0273 29.5366L25.8007 28.7853C28.5238 28.0477 28.6446 28.0121 28.596 27.9626C28.5284 27.8937 23.1229 26.2278 22.9824 26.2326C22.8919 26.2357 21.6518 26.6145 20.2265 27.0744ZM16.156 33.4674L16.1694 37.9342L19.1739 38.9594C20.8263 39.5233 22.1986 39.9719 22.2233 39.9563C22.248 39.9408 22.2682 37.8768 22.2682 35.3699V30.8116L22.1504 30.7605C21.9216 30.6611 16.3529 29.0005 16.2485 29.0005C16.1429 29.0005 16.1426 29.0147 16.156 33.4674ZM26.8489 29.8733C25.2941 30.347 23.9807 30.7517 23.9303 30.7726C23.8273 30.8153 23.7838 39.8934 23.8864 39.958C23.9356 39.989 29.7994 37.9909 29.8657 37.9205C29.8863 37.8987 29.9202 35.8828 29.941 33.4407L29.979 29.0005L29.8274 29.0063C29.744 29.0094 28.4037 29.3996 26.8489 29.8733ZM91.528 29.2228C91.4273 29.2516 91.2586 29.3601 91.1532 29.464C90.3863 30.2197 91.38 31.4603 92.2653 30.8524C93.0905 30.2859 92.4856 28.949 91.528 29.2228ZM57.4164 29.6067C57.1763 29.7181 57.1861 29.5043 57.1861 34.6609V39.4592L57.3146 39.59C57.6262 39.9075 58.0435 39.7114 58.2114 39.1685C58.3249 38.8016 58.3137 38.802 58.6724 39.1532C59.4352 39.8999 60.5772 40.0704 61.5766 39.5868C63.9484 38.4393 63.9894 33.3408 61.6358 32.2147C60.6571 31.7463 59.6561 31.863 58.9413 32.5286C58.7884 32.6709 58.649 32.7873 58.6315 32.7873C58.6139 32.7873 58.5995 32.107 58.5995 31.2755C58.5995 29.4814 58.6351 29.581 57.9838 29.5505C57.7108 29.5377 57.5258 29.556 57.4164 29.6067ZM91.133 32.0649L91.0045 32.1958V35.9512C91.0045 40.4345 90.9211 39.9877 91.7583 39.9877C92.2517 39.9877 92.3042 39.9777 92.4089 39.8642L92.5227 39.7408V35.9533V32.1659L92.4016 32.0499C92.2094 31.8661 91.3178 31.8766 91.133 32.0649ZM52.6054 32.0404C50.259 32.3734 49.0099 35.529 50.2015 38.1134C51.2931 40.4811 54.7492 40.5771 55.9048 38.2718C56.2187 37.6456 56.1034 37.4778 55.3005 37.3923C54.9258 37.3524 54.8294 37.4059 54.6312 37.7638C53.6392 39.5545 51.1621 38.5583 51.3322 36.4372L51.349 36.2275L53.7098 36.2008C56.5243 36.169 56.269 36.2446 56.229 35.4551C56.1133 33.1705 54.6119 31.7557 52.6054 32.0404ZM84.1285 32.0849C84.0809 32.1385 84.0419 32.2274 84.0419 32.2825C84.0419 32.5535 86.4591 39.6969 86.5921 39.8188C86.7802 39.9912 87.7933 39.9781 87.9631 39.801C88.0614 39.6985 90.4287 32.4409 90.4287 32.2421C90.4287 32.0675 90.22 31.9873 89.7655 31.9873C89.1068 31.9873 89.2042 31.8029 88.2583 34.8408C87.3027 37.9095 87.4014 37.6181 87.3392 37.5547C87.3119 37.5269 86.9117 36.3168 86.4499 34.8657C85.7709 32.732 85.5849 32.2044 85.4776 32.1073C85.2942 31.9415 84.271 31.9245 84.1285 32.0849ZM40.5317 32.1212C40.4559 32.1631 40.3799 32.2346 40.3628 32.28C40.3389 32.3434 41.3612 36.1325 42.2953 39.443C42.419 39.8814 42.498 39.9343 43.0287 39.9343C43.7417 39.9343 43.6017 40.2234 44.3909 37.1209C44.6763 35.9989 44.9334 35.0809 44.9622 35.0809C44.991 35.0809 45.2954 36.0949 45.6387 37.3343C46.2886 39.6809 46.3431 39.8466 46.4827 39.9012C46.6872 39.9812 47.4469 39.9363 47.5427 39.8387C47.6806 39.6982 49.6285 32.3732 49.5584 32.2588C49.4615 32.1006 49.2643 32.0357 48.9355 32.0538C48.3699 32.0849 48.4411 31.9376 47.6869 34.6365C47.3195 35.9516 47.0096 37.0376 46.9983 37.0498C46.9522 37.0995 46.8995 36.9254 46.2723 34.6525C45.5548 32.0526 45.5729 32.0946 45.1527 32.0534C44.4205 31.9817 44.4772 31.8768 43.763 34.6237C43.1957 36.8058 43.138 37.0002 43.0759 36.937C43.0607 36.9214 42.7758 35.8917 42.443 34.6489C42.1102 33.406 41.8146 32.3446 41.7861 32.2904C41.664 32.058 40.8452 31.9476 40.5317 32.1212ZM67.361 32.143C66.0969 32.4917 65.429 33.4444 65.6154 34.633C65.7864 35.7235 66.421 36.1907 68.254 36.5753C69.6905 36.8767 70.0119 37.0754 70.0119 37.6614C70.0119 39.0077 67.4449 39.1127 66.7886 37.7933C66.5886 37.3913 66.4986 37.3533 66.0013 37.4613C65.3107 37.6111 65.235 37.7601 65.5369 38.375C66.5227 40.3826 70.3109 40.5052 71.2541 38.56C71.6587 37.7255 71.5005 36.6591 70.8779 36.0248C70.4418 35.5805 70.0766 35.4344 68.7817 35.1863C67.3857 34.9187 67.148 34.7985 67.0589 34.3144C66.8287 33.0644 68.9941 32.7826 69.728 33.9672C70.0371 34.466 71.1113 34.3706 71.1113 33.8442C71.1113 32.6434 69.0073 31.689 67.361 32.143ZM74.5926 32.1402C72.0964 32.871 71.2918 37.0185 73.2554 39.0327C74.7118 40.5267 77.4234 40.1241 78.328 38.2796C78.6143 37.6959 78.5349 37.5398 77.8945 37.4282C77.3755 37.3378 77.2508 37.38 77.0783 37.7044C76.0833 39.5762 73.534 38.5878 73.738 36.4093L73.755 36.2275L76.1162 36.2136C78.8961 36.1973 78.6784 36.2523 78.6574 35.5718C78.5805 33.071 76.735 31.513 74.5926 32.1402ZM95.7343 32.1164C93.0636 32.7763 92.5068 38.0742 94.9545 39.5356C96.5934 40.5142 98.5993 39.6791 99.1666 37.782C99.3825 37.06 99.3097 36.9475 98.6271 36.9475C98.0341 36.9475 98.004 36.9679 97.836 37.4816C97.3505 38.967 95.8239 39.1387 95.2134 37.7767C94.6536 36.5276 94.8093 34.5171 95.5286 33.7059C96.3101 32.8246 97.6653 33.3153 97.8904 34.5611C97.9953 35.1419 99.2759 35.2438 99.2759 34.6713C99.2759 33.0177 97.4416 31.6944 95.7343 32.1164ZM102.371 32.1249C99.4304 32.9305 98.9789 38.1845 101.728 39.61C103.249 40.3988 105.321 39.7618 106.048 38.2821C106.342 37.6828 106.27 37.544 105.606 37.423C105.116 37.3339 105.006 37.3788 104.79 37.755C103.8 39.482 101.531 38.7265 101.506 36.6614L101.501 36.2275L103.874 36.2008C106.671 36.1694 106.421 36.2411 106.379 35.4808C106.244 33.0276 104.476 31.5479 102.371 32.1249ZM108.974 32.1216C107.807 32.3799 107.155 33.1535 107.155 34.2807C107.155 35.6409 107.783 36.1716 109.893 36.5947C111.228 36.8623 111.526 37.0621 111.526 37.6888C111.525 39.0191 108.955 39.1142 108.34 37.8067C108.146 37.3942 108.049 37.3553 107.51 37.4744C106.84 37.6226 106.779 37.7669 107.104 38.4301C108.052 40.3611 111.873 40.4647 112.781 38.5841C113.392 37.3203 112.811 35.9043 111.5 35.4615C111.327 35.4032 110.739 35.2678 110.194 35.1606C108.822 34.8909 108.595 34.7465 108.595 34.142C108.594 33.0123 110.565 32.8585 111.241 33.9354C111.491 34.3338 111.576 34.3673 112.056 34.2563C112.716 34.1038 112.789 33.952 112.487 33.3666C111.941 32.3073 110.477 31.7887 108.974 32.1216ZM82.1237 32.1922C81.7879 32.3105 81.3754 32.6267 81.1619 32.9296C80.9443 33.2383 80.8957 33.2217 80.9104 32.8438C80.9287 32.3704 80.8532 32.3073 80.2684 32.3073C79.5243 32.3073 79.5921 31.9249 79.5921 36.1221C79.5921 40.2935 79.523 39.8971 80.255 39.9258C80.6595 39.9417 80.735 39.9301 80.8552 39.8337L80.9928 39.7235L81.0209 37.5754C81.0509 35.277 81.0624 35.1681 81.3339 34.6061C81.6569 33.9376 82.1233 33.5839 82.8127 33.4844C83.2896 33.4155 83.331 33.3643 83.3535 32.8151C83.3825 32.1053 82.9675 31.8951 82.1237 32.1922ZM60.8389 33.2613C62.0216 33.876 62.2704 37.0593 61.2279 38.2385C60.5304 39.0275 59.2158 38.6567 58.812 37.5571C58.5606 36.8724 58.5217 35.1142 58.7442 34.4884C59.1282 33.4081 60.0653 32.8592 60.8389 33.2613ZM53.6434 33.2459C54.1301 33.4148 54.545 33.9847 54.68 34.6697C54.7782 35.168 54.8969 35.1341 53.0551 35.1341C51.2357 35.1341 51.3355 35.1611 51.4515 34.6998C51.7451 33.532 52.6805 32.9116 53.6434 33.2459ZM76.2388 33.3509C76.7118 33.6132 77.0815 34.2543 77.098 34.8408L77.1055 35.1074L75.486 35.1216C73.6669 35.1374 73.7607 35.1588 73.8542 34.749C74.1456 33.472 75.2691 32.8133 76.2388 33.3509ZM103.915 33.3096C104.405 33.5657 104.799 34.2305 104.837 34.8674L104.851 35.1074L103.232 35.1216C101.42 35.1374 101.488 35.1524 101.58 34.7517C101.869 33.5014 102.975 32.8186 103.915 33.3096Z" fill="#BFBFBF"/>
</svg>
