<svg width="96" height="96" viewBox="0 0 96 96" fill="none" xmlns="http://www.w3.org/2000/svg">
<path fill-rule="evenodd" clip-rule="evenodd" d="M24 2H72C84.1503 2 94 11.8497 94 24V72C94 84.1503 84.1503 94 72 94H24C11.8497 94 2 84.1503 2 72V24C2 11.8497 11.8497 2 24 2ZM0 24C0 10.7452 10.7452 0 24 0H72C85.2548 0 96 10.7452 96 24V72C96 85.2548 85.2548 96 72 96H24C10.7452 96 0 85.2548 0 72V24ZM36.0708 32.3312C37.7583 27.837 41.6469 24.7255 46.4156 24.0538C47.2317 23.9389 49.5749 24.019 50.4294 24.1911C55.5887 25.2302 59.5899 29.3378 60.5076 34.5373C60.6969 35.6096 60.6969 37.736 60.5076 38.8083C59.5835 44.0441 55.594 48.118 50.3587 49.1715C49.2366 49.3973 46.7634 49.3973 45.6413 49.1715C41.2274 48.2833 37.6574 45.246 36.0786 41.0359C35.0988 38.4231 35.0956 34.9284 36.0708 32.3312ZM46.5951 41.4578L50.5989 37.4469L54.6027 33.436L53.6192 32.4508L52.6357 31.4656L49.6158 34.4909L46.5959 37.516L44.9784 35.8978L43.361 34.2795L42.3797 35.2657L41.3985 36.2521L43.9968 38.8549L46.5951 41.4578ZM28.3248 54.21C28.7483 51.7698 30.4278 50.0227 32.8731 49.4791C33.5611 49.326 34.8657 49.4329 35.6795 49.7089C38.0417 50.5102 39.5194 52.5979 39.5024 55.1105C39.4916 56.7256 38.873 58.0957 37.6463 59.2217C36.1953 60.5536 34.0929 61.0168 32.2101 60.4194C29.584 59.5862 27.8679 56.8435 28.3248 54.21ZM56.6561 53.6092C57.1883 51.6352 58.7245 50.1227 60.7587 49.5699C62.6634 49.0522 64.9747 49.7711 66.3199 51.2994C66.8733 51.9282 67.449 53.1049 67.6335 53.9845C68.2053 56.7113 66.5051 59.5579 63.7899 60.4194C61.4053 61.1761 58.7647 60.2163 57.3691 58.0857C56.556 56.8441 56.2692 55.0438 56.6561 53.6092ZM24.3359 66.7052C24.8146 64.8888 25.8439 63.1899 27.2534 61.8898C27.6589 61.5156 28.0033 61.2095 28.0186 61.2095C28.034 61.2095 28.3507 61.4449 28.7224 61.7327C30.4322 63.056 32.6883 63.7027 34.7668 63.4651C36.3756 63.2813 37.7853 62.7116 39.0828 61.7211L39.7663 61.1994L40.2241 61.5834C41.2474 62.4417 42.1025 63.5467 42.7469 64.8437C43.5145 66.3886 43.7837 67.8133 43.7845 70.3345L43.7851 72H33.8925H24L24.0451 69.8184C24.086 67.8494 24.1143 67.5462 24.3359 66.7052ZM52.5218 66.8345C53.074 64.7275 54.1723 62.9435 55.7026 61.6677L56.2497 61.2116L56.9205 61.7235C57.7827 62.3815 58.4363 62.7271 59.4834 63.0786C62.1172 63.9625 65.053 63.4545 67.2823 61.729L67.9628 61.2023L68.4161 61.5824C69.9992 62.9102 71.1916 64.8245 71.7117 66.8736C71.8703 67.4985 71.914 68.0324 71.9528 69.8184L72 72H62.0956H52.191L52.239 69.8654C52.2812 67.9827 52.3146 67.6249 52.5218 66.8345Z" fill="url(#paint0_radial_237_1430)"/>
<defs>
<radialGradient id="paint0_radial_237_1430" cx="0" cy="0" r="1" gradientUnits="userSpaceOnUse" gradientTransform="translate(-9.49999 5.01781e-06) rotate(38.9166) scale(156.8)">
<stop stop-color="#9CFFA0"/>
<stop offset="0.50405" stop-color="#B1A2F7"/>
<stop offset="1" stop-color="#9B40F7"/>
</radialGradient>
</defs>
</svg>
