<svg width="96" height="96" viewBox="0 0 96 96" fill="none" xmlns="http://www.w3.org/2000/svg">
<path fill-rule="evenodd" clip-rule="evenodd" d="M24 2H72C84.1503 2 94 11.8497 94 24V72C94 84.1503 84.1503 94 72 94H24C11.8497 94 2 84.1503 2 72V24C2 11.8497 11.8497 2 24 2ZM0 24C0 10.7452 10.7452 0 24 0H72C85.2548 0 96 10.7452 96 24V72C96 85.2548 85.2548 96 72 96H24C10.7452 96 0 85.2548 0 72V24ZM24.0952 31.8255C24.4308 30.0448 26.0077 28.4373 27.7552 28.0946C27.9844 28.0497 37.0734 28.0089 47.9531 28.004C67.2508 27.9954 68.3098 27.9655 69.1448 28.3833C69.2504 28.4361 69.3525 28.4962 69.4876 28.5644C70.6552 29.1538 71.6557 30.5036 71.9048 31.8255C71.9574 32.1045 72 33.7512 72 35.5051V38.6799H48H24V35.5051C24 33.7512 24.0426 32.1045 24.0952 31.8255ZM34.875 31.728L34.601 31.4539L34.3269 31.1799H31.875H29.4231L29.149 31.4539L28.875 31.728V34.2239V36.7197L29.1052 36.9497L29.3352 37.1799H31.8752H34.4152L34.6451 36.9318L34.875 36.6838V34.2059V31.728ZM43.5469 31.6324L43.2838 31.4061L43.0208 31.1799L40.6119 31.1827C39.0503 31.1846 38.1372 31.2217 38.0156 31.2882C37.6017 31.5146 37.5938 31.5694 37.5938 34.2021V36.7197L37.8239 36.9497L38.054 37.1799H40.5731H43.0923L43.3196 36.9379L43.5469 36.696V34.1642V31.6324ZM52.2157 34.2075C52.2127 31.571 52.2043 31.5151 51.7796 31.2889C51.6393 31.2142 50.8187 31.1799 49.1708 31.1799H46.7668L46.4928 31.4539L46.2188 31.728V34.132C46.2188 36.5727 46.2472 36.7999 46.5856 37.0597C46.6938 37.1428 47.4197 37.1747 49.2464 37.1769L51.7585 37.1799L51.9886 36.9497L52.2188 36.7197L52.2157 34.2075ZM30.5625 35.4924V34.1799V32.8674H31.875H33.1875V34.1799V35.4924H31.875H30.5625ZM39.2812 35.4924V34.1799V32.8674H40.5938H41.9062V34.1799V35.4924H40.5938H39.2812ZM47.9062 35.4924V34.1799V32.8674H49.2188H50.5312V34.1799V35.4924H49.2188H47.9062ZM24.1444 63.5149C24.0222 62.9969 24.0026 61.3646 24.0014 51.6408L24 40.3674H48H72L71.9986 51.6408C71.9974 61.3646 71.9778 62.9969 71.8556 63.5149C71.4711 65.1463 70.2247 66.4568 68.5781 66.9608C68.0398 67.1256 67.1557 67.133 48 67.133C28.8442 67.133 27.9602 67.1256 27.4219 66.9608C25.7753 66.4568 24.5289 65.1463 24.1444 63.5149ZM62.639 43.4286C61.6815 42.9365 60.5993 42.5822 59.625 42.442C56.6009 42.0068 53.7044 42.7315 51.4182 44.4952C50.7045 45.0458 49.5156 46.3142 49.0481 47.0236C46.6333 50.6887 46.6738 55.289 49.1535 58.9768C49.7191 59.818 51.0419 61.1308 51.9016 61.7042C53.754 62.9399 55.6887 63.5295 57.8906 63.5295C60.7252 63.5295 63.1817 62.5423 65.229 60.5804C65.9951 59.8463 66.7696 58.8856 67.0663 58.3018C67.2767 57.8876 67.257 57.5529 67.0078 57.3071C66.8917 57.1927 65.0883 56.1124 63 54.9065C60.9117 53.7006 59.1685 52.6837 59.1262 52.6466C59.0839 52.6095 60.0473 50.8652 61.267 48.7704C62.4868 46.6755 63.5307 44.8402 63.5867 44.6917C63.7754 44.1919 63.5565 43.9002 62.639 43.4286ZM51.8967 46.2859C53.3551 44.9964 55.1607 44.2038 57.0261 44.0347C57.8682 43.9583 58.5013 43.983 59.4375 44.1287C60.0506 44.2242 61.3907 44.6314 61.5257 44.7634C61.5882 44.8246 57.6055 51.8782 57.3645 52.133C57.3158 52.1846 55.4313 52.7155 53.177 53.3128L49.0781 54.3988L49.0018 54.0159C48.8803 53.4061 48.998 51.5584 49.2113 50.7268C49.6051 49.1922 50.7485 47.3014 51.8967 46.2859ZM42.6644 46.2472C43.076 45.9312 43.138 45.3769 42.805 44.9898L42.5788 44.7268L36.0316 44.7083C32.4307 44.6982 29.394 44.7268 29.2835 44.7719C28.7647 44.9837 28.614 45.7399 29.0114 46.1372L29.2415 46.3674L35.8786 46.3644C40.948 46.3621 42.5508 46.3345 42.6644 46.2472ZM42.805 51.0262C43.138 50.6391 43.0761 50.0849 42.6644 49.7688C42.5508 49.6815 40.948 49.6539 35.8786 49.6516L29.2415 49.6486L29.0114 49.8788C28.7041 50.186 28.7025 50.6716 29.0075 51.0262L29.2338 51.2893H35.9062H42.5787L42.805 51.0262ZM49.6151 56.0275C49.6807 56.003 51.4852 55.512 53.625 54.9363C55.7648 54.3606 57.5839 53.8845 57.6673 53.8785C57.8482 53.8652 65.0855 58.0143 65.1336 58.1587C65.1856 58.3148 63.5828 59.888 62.9177 60.3337C61.1973 61.4865 59.226 61.9878 57.0758 61.8191C54.6203 61.6264 52.2066 60.2805 50.7199 58.2751C50.1343 57.4853 49.4483 56.0896 49.6151 56.0275ZM42.7885 55.9227C43.0935 55.5602 43.0993 55.1758 42.805 54.8336L42.5788 54.5705L36.0316 54.552C32.4307 54.5419 29.394 54.5705 29.2835 54.6156C28.7558 54.8311 28.619 55.5545 29.0284 55.964L29.2756 56.2111H35.9107H42.5458L42.7885 55.9227ZM42.6303 60.996C43.1111 60.7011 43.1588 60.0809 42.7312 59.6825C42.5302 59.4952 42.4278 59.4924 35.8843 59.4924H29.2415L29.0114 59.7225C28.7041 60.0298 28.7025 60.5153 29.0075 60.87L29.2337 61.133L35.7809 61.1572C42.1601 61.1807 42.3359 61.1766 42.6303 60.996Z" fill="url(#paint0_radial_237_1414)"/>
<defs>
<radialGradient id="paint0_radial_237_1414" cx="0" cy="0" r="1" gradientUnits="userSpaceOnUse" gradientTransform="translate(-9.49999 5.01781e-06) rotate(38.9166) scale(156.8)">
<stop stop-color="#9CFFA0"/>
<stop offset="0.50405" stop-color="#B1A2F7"/>
<stop offset="1" stop-color="#9B40F7"/>
</radialGradient>
</defs>
</svg>
