<svg width="96" height="96" viewBox="0 0 96 96" fill="none" xmlns="http://www.w3.org/2000/svg">
<path fill-rule="evenodd" clip-rule="evenodd" d="M24 2H72C84.1503 2 94 11.8497 94 24V72C94 84.1503 84.1503 94 72 94H24C11.8497 94 2 84.1503 2 72V24C2 11.8497 11.8497 2 24 2ZM0 24C0 10.7452 10.7452 0 24 0H72C85.2548 0 96 10.7452 96 24V72C96 85.2548 85.2548 96 72 96H24C10.7452 96 0 85.2548 0 72V24ZM40.0171 26.3155C41.8278 25.1342 43.8992 24.3486 45.8593 24.0997C47.4758 23.8942 49.3215 24.0096 50.9175 24.4159C53.3797 25.0425 55.2281 26.096 57.081 27.9288C58.296 29.1307 58.9355 29.9944 59.6374 31.3813C60.3421 32.7736 60.9648 34.8522 60.9648 35.8117C60.9648 35.9882 61.097 36.2278 61.3597 36.5279C61.5628 36.7599 61.7137 36.9227 61.8259 37.1089C62.1649 37.6716 62.1497 38.4478 62.1497 41.9952C62.1497 46.0265 62.143 46.1818 61.952 46.5898C61.8434 46.8221 61.5981 47.176 61.407 47.3764C61.184 47.6103 61.0596 47.9211 61.0596 48.2443V48.6949C61.0596 49.7632 60.9543 50.4726 60.6624 51.3712C59.9448 53.5801 58.3596 55.3464 56.2108 56.3321C54.7136 57.0188 54.5198 57.0437 50.6737 57.0437H47.6696C47.3992 57.0437 47.1349 56.9626 46.911 56.8109C45.96 56.1666 45.9349 54.7297 46.8632 54.0747C47.1695 53.8587 47.2153 53.8551 50.3962 53.7997C53.3503 53.7481 53.6714 53.7265 54.2492 53.5409C55.7698 53.0524 57.0503 51.7563 57.4955 50.2552C57.5781 49.9765 57.6694 49.3014 57.6984 48.755L57.7176 48.3943C57.739 47.9903 57.5934 47.5952 57.315 47.3015C56.8995 46.8632 56.8762 46.8519 56.8215 47.0593C56.7181 47.4499 55.839 49.1533 55.4148 49.7846C55.1869 50.1238 54.7909 50.5953 54.5347 50.8324C53.7904 51.5209 53.5619 51.5587 50.139 51.5587C47.4341 51.5587 47.1713 51.5733 46.6333 51.7525C45.9199 51.9902 45.3739 52.3531 44.859 52.9318C44.6264 53.1932 44.2498 53.2708 43.9329 53.1227L43.8809 53.0984C41.7186 52.0879 39.9636 50.3128 38.7838 47.943L38.5012 47.3752C38.3867 47.1453 38.0757 47.1047 37.906 47.2976C37.0807 48.2361 35.742 48.4813 34.567 47.9091C34.1365 47.6995 33.8495 47.4782 33.6166 47.1767C33.0094 46.3899 32.9918 46.2316 33.0227 41.7938C33.0461 38.4351 33.0394 37.6719 33.3738 37.1128C33.4861 36.925 33.6369 36.7603 33.8403 36.5279C34.103 36.2278 34.2352 35.9882 34.2352 35.8117C34.2352 35.3513 34.5186 34.0453 34.8098 33.1636C35.1568 32.1136 35.8748 30.6804 36.5307 29.7289C37.2164 28.7342 39.0273 26.9612 40.0171 26.3155ZM57.5134 35.4524C56.7234 31.4752 53.6247 28.3643 49.6379 27.5462C48.5061 27.3138 46.6284 27.3167 45.5147 27.5523C41.4687 28.4082 38.354 31.6137 37.6427 35.6535C37.5751 36.0381 37.6837 36.4384 37.9402 36.7328C38.1335 36.9548 38.4902 36.9096 38.6221 36.6464L38.8258 36.2397C40.3264 33.245 42.9471 31.1004 45.8188 30.5173C47.1995 30.2369 49.0588 30.3477 50.3962 30.7903C52.9063 31.6207 55.2489 33.7975 56.4872 36.4502L56.5752 36.6388C56.701 36.9084 57.0627 36.9593 57.258 36.735C57.52 36.4341 57.6279 36.0288 57.5502 35.6375L57.5134 35.4524ZM28.0341 60.9154C30.1208 57.2626 33.4096 54.7047 37.5936 53.4801C38.0142 53.3571 38.3815 53.2541 38.4097 53.2514C38.438 53.2487 38.6512 53.4405 38.8837 53.6777C39.9041 54.7194 41.6298 55.8216 43.1916 56.4293C44.1134 56.7879 44.1215 56.7939 44.4084 57.3225C44.7199 57.8969 45.4306 58.5905 46.0045 58.88C46.8183 59.2907 47.2964 59.3408 50.3924 59.3403C53.6191 59.3397 54.5574 59.2516 55.9416 58.8198C57.8812 58.2147 59.7211 56.9712 60.9849 55.4112C61.1751 55.1765 61.5123 55.1241 61.7648 55.2901L62.0153 55.4548C64.7646 57.2629 66.8886 59.8316 68.0626 62.7683C68.7697 64.5372 69.0966 66.1395 69.1807 68.248C69.2542 70.0932 69.1385 70.5791 68.4677 71.2426C68.3544 71.3548 68.2927 71.4504 68.2161 71.532C67.7272 72.052 66.628 71.9984 47.6 71.9984C28.572 71.9984 27.4728 72.052 26.9839 71.532C26.9073 71.4504 26.8456 71.3548 26.7323 71.2426C26.0615 70.5791 25.9458 70.0932 26.0193 68.248C26.1314 65.4343 26.7604 63.1451 28.0341 60.9154Z" fill="url(#paint0_radial_93_119)"/>
<defs>
<radialGradient id="paint0_radial_93_119" cx="0" cy="0" r="1" gradientUnits="userSpaceOnUse" gradientTransform="translate(-9.49999 5.01781e-06) rotate(38.9166) scale(156.8)">
<stop stop-color="#9CFFA0"/>
<stop offset="0.50405" stop-color="#B1A2F7"/>
<stop offset="1" stop-color="#9B40F7"/>
</radialGradient>
</defs>
</svg>
