<svg width="96" height="96" viewBox="0 0 96 96" fill="none" xmlns="http://www.w3.org/2000/svg">
<path fill-rule="evenodd" clip-rule="evenodd" d="M24 2H72C84.1503 2 94 11.8497 94 24V72C94 84.1503 84.1503 94 72 94H24C11.8497 94 2 84.1503 2 72V24C2 11.8497 11.8497 2 24 2ZM0 24C0 10.7452 10.7452 0 24 0H72C85.2548 0 96 10.7452 96 24V72C96 85.2548 85.2548 96 72 96H24C10.7452 96 0 85.2548 0 72V24ZM49.0532 25.3857C49.1854 24.9046 49.8384 24.2207 50.2966 24.0837C50.4915 24.0254 52.0614 23.991 54.021 24.0021L57.4086 24.0212L57.8236 24.2989C58.0518 24.4515 58.348 24.7542 58.4817 24.9715C58.7086 25.3404 58.727 25.4847 58.7588 27.1517L58.7928 28.9369H61.0194C63.6763 28.9369 63.9683 29.0035 64.6446 29.7636C64.8881 30.0373 65.1421 30.446 65.2091 30.6718C65.2833 30.9217 65.3309 31.7968 65.3309 32.9073V34.7323H53.8597H42.3885V32.9073C42.3885 30.7008 42.4575 30.4127 43.1532 29.7096C43.8693 28.986 44.0962 28.9369 46.7277 28.9369H48.9435L48.9441 27.3587C48.9444 26.4907 48.9935 25.6028 49.0532 25.3857ZM56.3178 28.9369V27.695V26.4532H53.8597H51.4016V27.695V28.9369H53.8597H56.3178ZM42.5131 43.7755C42.4276 43.483 42.3885 42.3881 42.3885 40.2828V37.216H53.8597H65.3309V40.2828C65.3309 42.3527 65.2914 43.483 65.2091 43.7602C65.1421 43.986 64.8881 44.3947 64.6446 44.6684C64.5145 44.8145 64.4242 44.9349 64.3147 45.0341C63.7673 45.5296 62.7401 45.4951 53.879 45.4951C46.8239 45.4951 44.4079 45.464 44.0904 45.3692C43.5278 45.2013 42.6793 44.344 42.5131 43.7755ZM38.2782 51.007C41.2765 49.5004 42.3084 49.1043 43.7154 48.9204C44.0841 48.8723 46.9008 48.827 49.9747 48.8197C56.3148 48.8049 56.3266 48.8062 57.032 49.5405C58.3449 50.9076 57.7712 53.3063 56.0207 53.7684C55.818 53.8219 54.7303 53.941 53.6037 54.0329C52.477 54.1248 51.423 54.2518 51.2615 54.3152C50.909 54.4533 50.5832 54.9561 50.5826 55.3626C50.582 55.8161 50.8647 56.3153 51.2368 56.5177C51.5577 56.6923 51.6729 56.6927 53.7151 56.5249C54.8931 56.4281 56.1282 56.2811 56.4599 56.1984C57.3697 55.9713 58.2022 55.4731 58.846 54.7705C59.3508 54.2196 60.0047 53.0983 60.0049 52.783C60.005 52.6289 67.5273 50.5603 68.0758 50.5634C68.8227 50.5678 69.5577 51.0706 69.9702 51.8596C70.3867 52.6563 70.1907 53.9476 69.5666 54.5168C69.1665 54.8818 54.97 62.5777 54.2401 62.8252C53.3112 63.1403 52.071 63.2537 51.248 63.0987C50.91 63.035 48.9637 62.5097 46.9228 61.9313L43.2121 60.8798L40.7386 62.0912C39.3782 62.7576 38.2569 63.2894 38.2467 63.273C38.2366 63.2567 37.5798 60.8217 36.787 57.8619L35.3455 52.4805L38.2782 51.007ZM26.0523 54.5813L28.9713 53.2487C32.0148 51.8593 32.1838 51.8111 32.5933 52.217C32.8012 52.4231 36.3357 65.3618 36.3422 65.9401C36.3441 66.1142 36.2881 66.3348 36.2176 66.4304C36.1473 66.5259 34.2921 67.5626 32.0952 68.7342C29.8983 69.9058 27.6281 71.1198 27.0503 71.4322L26 72L26.0261 63.2906L26.0523 54.5813Z" fill="url(#paint0_radial_93_119)"/>
<defs>
<radialGradient id="paint0_radial_93_119" cx="0" cy="0" r="1" gradientUnits="userSpaceOnUse" gradientTransform="translate(-9.49999 5.01781e-06) rotate(38.9166) scale(156.8)">
<stop stop-color="#9CFFA0"/>
<stop offset="0.50405" stop-color="#B1A2F7"/>
<stop offset="1" stop-color="#9B40F7"/>
</radialGradient>
</defs>
</svg>
