<svg width="96" height="96" viewBox="0 0 96 96" fill="none" xmlns="http://www.w3.org/2000/svg">
<path fill-rule="evenodd" clip-rule="evenodd" d="M24 2H72C84.1503 2 94 11.8497 94 24V72C94 84.1503 84.1503 94 72 94H24C11.8497 94 2 84.1503 2 72V24C2 11.8497 11.8497 2 24 2ZM0 24C0 10.7452 10.7452 0 24 0H72C85.2548 0 96 10.7452 96 24V72C96 85.2548 85.2548 96 72 96H24C10.7452 96 0 85.2548 0 72V24ZM47.5348 31.0813L51.0745 27.5407L54.6142 24L58.1549 27.5397L61.6956 31.0794V32.32V33.5607L60.2654 33.5865L58.8353 33.6124L58.8111 38.9327L58.7869 44.253L58.1194 43.7374C56.1503 42.2159 53.7816 41.104 51.3461 40.5578L50.3951 40.3446L50.3705 36.955L50.3459 33.5655H48.9404H47.5348V32.3234V31.0813ZM33.3741 35.5827L36.9138 32.0421L40.4535 28.5014L43.9942 32.0411L47.5348 35.5809V36.8239V38.067H46.131H44.7272L44.7009 39.2059L44.6745 40.3449L43.7367 40.5567C41.3182 41.1031 39.0099 42.1758 37.0736 43.6531L36.2838 44.2558L36.2591 41.1849L36.2344 38.1138L34.8042 38.088L33.3741 38.0621V36.8224V35.5827ZM34.1563 51.8074C36.1704 47.0664 40.6544 43.6727 45.7352 43.044C46.8943 42.9007 49.2129 42.9902 50.3482 43.2223C58.7029 44.9304 63.8088 53.256 61.5138 61.4291C59.5706 68.3493 52.7873 72.8132 45.6387 71.8761C36.148 70.632 30.4156 60.6129 34.1563 51.8074ZM48.9415 50.6125V49.6852V48.7579H47.5348H46.1281V49.6834V50.6089L45.81 50.6605C45.2213 50.7561 44.4044 51.2192 43.8513 51.7711C41.8588 53.7591 42.3796 57.1448 44.8704 58.3964C45.6219 58.7741 46.2225 58.8861 47.4963 58.8861C48.3716 58.8861 48.6392 58.9195 48.9218 59.0647C49.8625 59.5477 49.8625 60.9441 48.9218 61.427C48.4544 61.667 46.6525 61.6853 46.1672 61.4551C45.8201 61.2903 45.4717 60.8082 45.4717 60.4927C45.4717 60.2974 45.4385 60.2928 44.0519 60.2928H42.6322L42.6832 60.8552C42.8192 62.3543 44.1676 63.9039 45.6406 64.2538L46.1281 64.3696V65.2853V66.2009H47.5348H48.9415V65.2754V64.3499L49.2596 64.2982C49.8484 64.2026 50.6652 63.7395 51.2183 63.1876C52.86 61.5497 52.86 58.9421 51.2183 57.3041C50.2781 56.366 49.4062 56.0727 47.5583 56.0727C46.6395 56.0727 46.4307 56.0439 46.1324 55.8763C45.2576 55.3845 45.1988 54.2027 46.0188 53.5875C46.2254 53.4325 46.4472 53.3943 47.297 53.3677C47.8821 53.3493 48.4752 53.3803 48.6733 53.4397C49.0725 53.5593 49.4894 54.0058 49.5678 54.3978L49.6214 54.666H51.0295H52.4376L52.3833 54.1404C52.3068 53.3982 51.7752 52.3267 51.2113 51.7774C50.6989 51.2784 49.8227 50.7761 49.2932 50.6778L48.9415 50.6125Z" fill="url(#paint0_radial_237_1404)"/>
<defs>
<radialGradient id="paint0_radial_237_1404" cx="0" cy="0" r="1" gradientUnits="userSpaceOnUse" gradientTransform="translate(-9.49999 5.01781e-06) rotate(38.9166) scale(156.8)">
<stop stop-color="#9CFFA0"/>
<stop offset="0.50405" stop-color="#B1A2F7"/>
<stop offset="1" stop-color="#9B40F7"/>
</radialGradient>
</defs>
</svg>
