<svg width="96" height="96" viewBox="0 0 96 96" fill="none" xmlns="http://www.w3.org/2000/svg">
<path fill-rule="evenodd" clip-rule="evenodd" d="M24 2H72C84.1503 2 94 11.8497 94 24V72C94 84.1503 84.1503 94 72 94H24C11.8497 94 2 84.1503 2 72V24C2 11.8497 11.8497 2 24 2ZM0 24C0 10.7452 10.7452 0 24 0H72C85.2548 0 96 10.7452 96 24V72C96 85.2548 85.2548 96 72 96H24C10.7452 96 0 85.2548 0 72V24ZM31.0194 31.0182C35.0237 27.0087 40.092 24.6279 45.8483 24.0524C46.9972 23.9377 50.2364 24.0226 51.3908 24.1979C58.3364 25.2524 64.1771 28.9527 68.0677 34.7634C69.4371 36.8085 70.7172 39.7253 71.3493 42.2403C71.8476 44.2229 71.9951 45.522 71.9989 47.962C72.0027 50.3541 71.9035 51.3277 71.4481 53.3636C70.235 58.7876 67.0031 63.7773 62.4936 67.1886C59.9979 69.0765 56.9477 70.5438 53.9259 71.3103C51.8153 71.8456 50.544 71.9949 48.0559 71.9999C45.5038 72.005 44.1694 71.8451 41.9498 71.2685C38.9477 70.4886 36.0459 69.0797 33.4513 67.1421C32.2859 66.2719 29.7257 63.7112 28.8599 62.5498C26.3776 59.2201 24.8762 55.6532 24.2223 51.5317C23.926 49.6645 23.9282 46.29 24.227 44.4443C25.0733 39.2156 27.3737 34.6685 31.0194 31.0182ZM39.1786 33.7411C38.5434 33.4123 38.4779 33.1703 38.4436 31.0293C38.4269 29.983 38.3846 29.1275 38.3496 29.128C38.2279 29.1301 37.0585 29.8121 36.1725 30.3977C33.8067 31.9616 31.5121 34.3335 30.017 36.7609C29.77 37.162 29.5849 37.507 29.6058 37.5276C29.6266 37.5482 30.8936 38.1749 32.4214 38.9204C34.9371 40.1478 35.2197 40.3092 35.4187 40.631C35.5515 40.8458 35.6405 41.1397 35.6439 41.3742C35.6475 41.6384 35.2216 43.0107 34.3067 45.6812C33.5298 47.9491 32.9872 49.6732 33.0189 49.7731C33.0491 49.868 33.954 51.9089 35.0299 54.3084C36.7582 58.1631 37.0355 58.722 37.4108 59.1075C37.9789 59.6911 38.5998 59.8512 39.3969 59.6194C40.0209 59.438 40.4923 59.0577 40.7119 58.5584C40.7983 58.3621 41.2706 56.4472 41.7616 54.303C42.2526 52.1588 42.6951 50.3104 42.7451 50.1955C42.7951 50.0806 44.2305 48.2362 45.9348 46.0967C47.6393 43.9572 49.13 42.0221 49.2476 41.7964C49.6144 41.093 49.5908 40.3986 49.1431 38.7089C48.6623 36.8942 48.6166 36.7818 48.157 36.282C48.0435 36.1586 47.958 36.0593 47.8613 35.9725C47.4094 35.5669 46.7123 35.4344 41.7619 34.3878C40.5219 34.1257 39.3594 33.8346 39.1786 33.7411ZM69.019 44.9559C68.6558 42.7224 68.0871 40.8469 67.2175 39.0142C66.9417 38.433 66.6965 37.9574 66.6728 37.9574C66.6489 37.9574 66.0331 38.6584 65.3041 39.5152L63.9788 41.073V43.9351C63.9788 46.3894 63.9571 46.839 63.8266 47.0914C63.7429 47.2531 62.7221 48.7411 61.5583 50.3981C60.3944 52.0549 59.365 53.583 59.2707 53.7937C59.1764 54.0045 59.0741 54.4061 59.0432 54.6861C58.9683 55.3671 59.7949 62.9375 59.9615 63.0961C60.0268 63.1583 60.4516 63.447 60.9055 63.7376L61.7308 64.266L62.9744 63.0186C64.8281 61.1593 66.0157 59.4901 67.1367 57.1681C68.1013 55.1702 68.7202 53.1224 69.0671 50.7802C69.2553 49.5098 69.2282 46.2426 69.019 44.9559ZM51.2116 66.3901C51.0777 66.2438 50.8255 66.0641 50.6513 65.9908C50.477 65.9175 50.2196 65.8576 50.0793 65.8576C49.7533 65.8576 47.9531 66.732 47.5986 67.0625C47.2271 67.4088 46.4589 69.0577 46.6211 69.1606C46.7915 69.2688 48.6157 69.2566 49.8877 69.1387C50.9404 69.0413 52.7772 68.7299 52.8747 68.6323C52.9238 68.5832 51.6624 66.8823 51.2116 66.3901Z" fill="url(#paint0_radial_237_1409)"/>
<defs>
<radialGradient id="paint0_radial_237_1409" cx="0" cy="0" r="1" gradientUnits="userSpaceOnUse" gradientTransform="translate(-9.49999 5.01781e-06) rotate(38.9166) scale(156.8)">
<stop stop-color="#9CFFA0"/>
<stop offset="0.50405" stop-color="#B1A2F7"/>
<stop offset="1" stop-color="#9B40F7"/>
</radialGradient>
</defs>
</svg>
