<svg width="120" height="120" viewBox="0 0 120 120" fill="none" xmlns="http://www.w3.org/2000/svg">
<g filter="url(#filter0_d_237_1419)">
<path fill-rule="evenodd" clip-rule="evenodd" d="M36 14H84C96.1503 14 106 23.8497 106 36V84C106 96.1503 96.1503 106 84 106H36C23.8497 106 14 96.1503 14 84V36C14 23.8497 23.8497 14 36 14ZM12 36C12 22.7452 22.7452 12 36 12H84C97.2548 12 108 22.7452 108 36V84C108 97.2548 97.2548 108 84 108H36C22.7452 108 12 97.2548 12 84V36ZM61.0532 37.3857C61.1854 36.9046 61.8384 36.2207 62.2966 36.0837C62.4915 36.0254 64.0614 35.991 66.021 36.0021L69.4086 36.0212L69.8236 36.2989C70.0518 36.4515 70.348 36.7542 70.4817 36.9715C70.7086 37.3404 70.727 37.4847 70.7588 39.1517L70.7928 40.9369H73.0194C75.6763 40.9369 75.9683 41.0035 76.6446 41.7636C76.8881 42.0373 77.1421 42.446 77.2091 42.6718C77.2833 42.9217 77.3309 43.7968 77.3309 44.9073V46.7323H65.8597H54.3885V44.9073C54.3885 42.7008 54.4575 42.4127 55.1532 41.7096C55.8693 40.986 56.0962 40.9369 58.7277 40.9369H60.9435L60.9441 39.3587C60.9444 38.4907 60.9935 37.6028 61.0532 37.3857ZM68.3178 40.9369V39.695V38.4532H65.8597H63.4016V39.695V40.9369H65.8597H68.3178ZM54.5131 55.7755C54.4276 55.483 54.3885 54.3881 54.3885 52.2828V49.216H65.8597H77.3309V52.2828C77.3309 54.3527 77.2914 55.483 77.2091 55.7602C77.1421 55.986 76.8881 56.3947 76.6446 56.6684C76.5145 56.8145 76.4242 56.9349 76.3147 57.0341C75.7673 57.5296 74.7401 57.4951 65.879 57.4951C58.8239 57.4951 56.4079 57.464 56.0904 57.3692C55.5278 57.2013 54.6793 56.344 54.5131 55.7755ZM50.2782 63.007C53.2765 61.5004 54.3084 61.1043 55.7154 60.9204C56.0841 60.8723 58.9008 60.827 61.9747 60.8197C68.3148 60.8049 68.3266 60.8062 69.032 61.5405C70.3449 62.9076 69.7712 65.3063 68.0207 65.7684C67.818 65.8219 66.7303 65.941 65.6037 66.0329C64.477 66.1248 63.423 66.2518 63.2615 66.3152C62.909 66.4533 62.5832 66.9561 62.5826 67.3626C62.582 67.8161 62.8647 68.3153 63.2368 68.5177C63.5577 68.6923 63.6729 68.6927 65.7151 68.5249C66.8931 68.4281 68.1282 68.2811 68.4599 68.1984C69.3697 67.9713 70.2022 67.4731 70.846 66.7705C71.3508 66.2196 72.0047 65.0983 72.0049 64.783C72.005 64.6289 79.5273 62.5603 80.0758 62.5634C80.8227 62.5678 81.5577 63.0706 81.9702 63.8596C82.3867 64.6563 82.1907 65.9476 81.5666 66.5168C81.1665 66.8818 66.97 74.5777 66.2401 74.8252C65.3112 75.1403 64.071 75.2537 63.248 75.0987C62.91 75.035 60.9637 74.5097 58.9228 73.9313L55.2121 72.8798L52.7386 74.0912C51.3782 74.7576 50.2569 75.2894 50.2467 75.273C50.2366 75.2567 49.5798 72.8217 48.787 69.8619L47.3455 64.4805L50.2782 63.007ZM38.0523 66.5813L40.9713 65.2487C44.0148 63.8593 44.1838 63.8111 44.5933 64.217C44.8012 64.4231 48.3357 77.3618 48.3422 77.9401C48.3441 78.1142 48.2881 78.3348 48.2176 78.4304C48.1473 78.5259 46.2921 79.5626 44.0952 80.7342C41.8983 81.9058 39.6281 83.1198 39.0503 83.4322L38 84L38.0261 75.2906L38.0523 66.5813Z" fill="url(#paint0_radial_237_1419)"/>
</g>
<defs>
<filter id="filter0_d_237_1419" x="0" y="0" width="120" height="120" filterUnits="userSpaceOnUse" color-interpolation-filters="sRGB">
<feFlood flood-opacity="0" result="BackgroundImageFix"/>
<feColorMatrix in="SourceAlpha" type="matrix" values="0 0 0 0 0 0 0 0 0 0 0 0 0 0 0 0 0 0 127 0" result="hardAlpha"/>
<feOffset/>
<feGaussianBlur stdDeviation="6"/>
<feColorMatrix type="matrix" values="0 0 0 0 0.670588 0 0 0 0 0.34902 0 0 0 0 0.788235 0 0 0 0.25 0"/>
<feBlend mode="normal" in2="BackgroundImageFix" result="effect1_dropShadow_237_1419"/>
<feBlend mode="normal" in="SourceGraphic" in2="effect1_dropShadow_237_1419" result="shape"/>
</filter>
<radialGradient id="paint0_radial_237_1419" cx="0" cy="0" r="1" gradientUnits="userSpaceOnUse" gradientTransform="translate(2.50001 12) rotate(38.9166) scale(156.8)">
<stop stop-color="#9CFFA0"/>
<stop offset="0.50405" stop-color="#B1A2F7"/>
<stop offset="1" stop-color="#9B40F7"/>
</radialGradient>
</defs>
</svg>
