<svg width="240" height="48" viewBox="0 0 240 48" fill="none" xmlns="http://www.w3.org/2000/svg">
<path d="M44.7304 22.759L41.1182 9.33637C40.3898 6.66992 38.2953 4.57592 35.5938 3.85281L22.0712 0.267406C19.3849 -0.455701 16.5012 0.312601 14.5282 2.27102L3.08481 13.6148C2.38667 14.3077 1.80995 15.6786 1.80995 16.6578C1.80995 17.637 1.23323 19.0079 0.535086 19.7009C0.0797775 20.1529 0.0797775 20.876 0.535086 21.3279C0.990394 21.7798 1.71889 21.7798 2.1742 21.3279L2.87234 20.6349L11.0072 12.5753C11.5991 11.9878 11.9026 11.1743 11.7812 10.3457C11.5991 9.12547 12.024 7.8299 13.0864 6.95615C14.4827 5.81123 16.5468 5.84136 17.8975 7.03147C19.5215 8.44755 19.5822 10.9031 18.0796 12.3945C17.2146 13.2532 16.0459 13.5997 14.9228 13.434C14.0881 13.3135 13.2534 13.6148 12.6615 14.2023L1.52159 25.2598C1.08146 25.7117 1.09663 26.4348 1.53676 26.8717C1.9769 27.3086 2.70539 27.3237 3.1607 26.8868L7.94144 22.1414C8.39675 21.6895 9.12524 21.6895 9.58055 22.1414C10.0359 22.5933 10.0359 23.3164 9.58055 23.7684L1.46088 31.828C1.02075 32.28 1.03592 33.0031 1.47606 33.4399C1.91619 33.8768 2.64468 33.8919 3.09999 33.455L22.1774 14.5337C22.7693 13.9462 23.0273 13.1628 22.9059 12.3493C22.7238 11.1291 23.1487 9.83351 24.2111 8.95975C25.6074 7.81484 27.6715 7.84497 29.0222 9.03508C30.6462 10.4512 30.7069 12.9067 29.2043 14.3981C28.3393 15.2568 27.1706 15.6033 26.0475 15.4376C25.2128 15.3171 24.3781 15.6184 23.7862 16.2059L0.322608 39.496C-0.117523 39.9479 -0.102346 40.671 0.337785 41.1079C0.793094 41.5598 1.50641 41.5598 1.96172 41.123L12.8739 30.2914C13.3293 29.8395 14.0577 29.7943 14.5282 30.2312C15.0139 30.6831 15.0139 31.4213 14.5586 31.8883L7.51648 38.8783C7.10671 39.2851 7.046 39.963 7.42542 40.3998C7.4406 40.43 7.47095 40.445 7.48613 40.4752C7.94144 40.9271 8.66993 40.9271 9.12524 40.4752L22.481 27.2182C23.0729 26.6307 23.3764 25.8172 23.255 24.9886C23.0729 23.7684 23.4978 22.4728 24.5602 21.5991C25.9565 20.4541 28.0205 20.4843 29.3713 21.6744C30.9952 23.0905 31.0559 25.546 29.5534 27.0374C28.6883 27.8961 27.5197 28.2426 26.3966 28.0769C25.5619 27.9564 24.7271 28.2577 24.1352 28.8452L13.8756 39.029L13.1471 39.7521L10.7947 42.0871C10.3394 42.539 10.3394 43.2621 10.7947 43.7141C11.25 44.166 11.9785 44.166 12.4338 43.7141L16.4709 39.7069L24.3325 31.9033C24.7879 31.4514 25.5163 31.4514 25.9717 31.9033C26.427 32.3553 26.427 33.0784 25.9717 33.5303L19.051 40.3998L13.3748 46.0341C12.9195 46.486 12.9195 47.2091 13.3748 47.661C13.8301 48.113 14.5586 48.113 15.0139 47.661L15.3174 47.3597L21.631 41.0928L33.3173 29.493C33.9092 28.9055 34.2127 28.092 34.0913 27.2785C33.9092 26.0582 34.3493 24.7627 35.3965 23.904C36.7928 22.759 38.8417 22.7892 40.2076 23.9793C41.8316 25.3954 41.8923 27.8509 40.3898 29.3423C39.5247 30.201 38.3409 30.5475 37.233 30.3818C36.3982 30.2613 35.5635 30.5475 34.9716 31.1501L24.2111 41.7858L20.9936 44.9795C20.5383 45.4315 20.5383 46.1546 20.9936 46.6065C21.4489 47.0585 22.1774 47.0585 22.6327 46.6065L25.1521 44.1058C25.8502 43.4128 27.2313 42.8403 28.2178 42.8403C29.2043 42.8403 30.5854 42.2679 31.2836 41.5749L42.727 30.2161C44.6848 28.2878 45.4589 25.4255 44.7304 22.759Z" fill="url(#paint0_linear_237_1234)"/>
<path d="M28.0181 25.5958C28.5671 25.0495 28.5671 24.1845 28.0181 23.6382C27.4691 23.0919 26.5999 23.0919 26.0509 23.6382C25.5019 24.1845 25.5019 25.0495 26.0509 25.5958C26.5999 26.142 27.4844 26.142 28.0181 25.5958Z" fill="url(#paint1_linear_237_1234)"/>
<path d="M38.9063 27.9024C39.4553 27.3561 39.4553 26.4912 38.9063 25.9449C38.3573 25.3986 37.4881 25.3986 36.9391 25.9449C36.3901 26.4912 36.3901 27.3561 36.9391 27.9024C37.4881 28.4487 38.3726 28.4487 38.9063 27.9024Z" fill="url(#paint2_linear_237_1234)"/>
<path d="M27.6973 12.8643C28.2463 12.318 28.2463 11.4531 27.6973 10.9068C27.1483 10.3605 26.2791 10.3605 25.7301 10.9068C25.1811 11.4531 25.1811 12.318 25.7301 12.8643C26.2791 13.4106 27.1483 13.3954 27.6973 12.8643Z" fill="url(#paint3_linear_237_1234)"/>
<path d="M16.504 10.8614C17.0529 10.3151 17.0529 9.45014 16.504 8.90386C15.955 8.35757 15.0857 8.35757 14.5367 8.90386C13.9878 9.45014 13.9878 10.3151 14.5367 10.8614C15.0857 11.4077 15.955 11.3925 16.504 10.8614Z" fill="url(#paint4_linear_237_1234)"/>
<path d="M103.874 16.4715V9.80814C103.874 9.80814 103.874 9.7793 103.845 9.7793H88.1335C88.1335 9.7793 88.1045 9.7793 88.1045 9.80814C88.1045 13.5004 91.1193 16.4715 94.8008 16.4715H103.874C103.845 16.4715 103.874 16.4715 103.874 16.4715Z" fill="white"/>
<path d="M79.3206 9.7793H67.7253C64.0148 9.7793 61 12.7792 61 16.4715C61 16.4715 61 16.5003 61.029 16.5003H79.2916C80.4511 16.5003 81.4077 17.4522 81.4077 18.606V38.221C81.4077 38.221 81.4077 38.2498 81.4367 38.2498H88.133C88.133 38.2498 88.162 38.2498 88.162 38.221V18.0291H88.133C87.7851 13.385 83.9587 9.7793 79.3206 9.7793Z" fill="white"/>
<path d="M105.989 31.4998C104.83 31.4998 103.873 30.5479 103.873 29.394V20.6538C103.873 20.6538 103.873 20.625 103.844 20.625H97.1476C97.1476 20.625 97.1187 20.625 97.1187 20.6538V29.394C97.1187 34.2401 101.09 38.1919 105.96 38.1919H112.888C112.888 38.1919 112.917 38.1919 112.917 38.1631V31.4998C112.917 31.4998 112.917 31.4709 112.888 31.4709H105.989V31.4998Z" fill="white"/>
<path d="M128.688 9.77885C128.659 9.77885 128.659 9.77885 128.688 9.77885L128.659 29.3938C128.659 30.5476 127.702 31.4995 126.543 31.4995H121.731C120.571 31.4995 119.615 30.5476 119.615 29.3938V9.77885C119.615 9.77885 119.615 9.75 119.586 9.75H112.889C112.889 9.75 112.86 9.75 112.86 9.77885V29.3938C112.86 34.2398 116.832 38.1917 121.702 38.1917H126.514C131.384 38.1917 135.355 34.2398 135.355 29.3938V9.77885C135.355 9.77885 135.355 9.75 135.326 9.75H128.688V9.77885Z" fill="white"/>
<path d="M173.968 23.9424C175.214 22.3848 175.968 20.4233 175.91 18.2887C175.765 13.5292 171.881 9.7793 167.098 9.7793H153.154C149.473 9.7793 146.487 12.6639 146.487 16.3272L146.516 9.7793C141.646 9.7793 137.674 13.7311 137.674 18.5772V27.3174H144.4H167.069C168.141 27.3174 169.04 28.1539 169.127 29.2212C169.243 30.4615 168.199 31.4711 166.953 31.4711H144.342C140.631 31.4711 137.646 34.471 137.646 38.1344C137.646 38.1344 137.646 38.1633 137.674 38.1633H166.866C171.852 38.1633 176.026 34.1249 175.881 29.1346C175.823 27.202 175.127 25.3847 173.968 23.9424ZM166.982 20.6252H144.4V18.5483C144.4 17.3657 145.356 16.4426 146.487 16.4426H167.069C168.141 16.4426 169.04 17.2791 169.127 18.3464C169.272 19.5868 168.228 20.6252 166.982 20.6252Z" fill="white"/>
<defs>
<linearGradient id="paint0_linear_237_1234" x1="20.9432" y1="-3.18415" x2="22.7533" y2="38.9731" gradientUnits="userSpaceOnUse">
<stop stop-color="#0B7CD8"/>
<stop offset="1" stop-color="#2E3192"/>
</linearGradient>
<linearGradient id="paint1_linear_237_1234" x1="25.8174" y1="-3.41286" x2="27.6452" y2="39.0515" gradientUnits="userSpaceOnUse">
<stop stop-color="#0B7CD8"/>
<stop offset="1" stop-color="#2E3192"/>
</linearGradient>
<linearGradient id="paint2_linear_237_1234" x1="36.5861" y1="-3.8763" x2="38.4139" y2="38.5881" gradientUnits="userSpaceOnUse">
<stop stop-color="#0B7CD8"/>
<stop offset="1" stop-color="#2E3192"/>
</linearGradient>
<linearGradient id="paint3_linear_237_1234" x1="26.0411" y1="-3.42247" x2="27.869" y2="39.0419" gradientUnits="userSpaceOnUse">
<stop stop-color="#0B7CD8"/>
<stop offset="1" stop-color="#2E3192"/>
</linearGradient>
<linearGradient id="paint4_linear_237_1234" x1="14.9628" y1="-2.9455" x2="16.7907" y2="39.5189" gradientUnits="userSpaceOnUse">
<stop stop-color="#0B7CD8"/>
<stop offset="1" stop-color="#2E3192"/>
</linearGradient>
</defs>
</svg>
