<svg width="216" height="44" viewBox="0 0 216 44" fill="none" xmlns="http://www.w3.org/2000/svg">
<path d="M41.3329 20.8625L38.0218 8.55834C37.354 6.11409 35.4341 4.19459 32.9578 3.53174L20.562 0.245123C18.0995 -0.417726 15.4562 0.286551 13.6476 2.08176L3.15782 12.4802C2.51786 13.1154 1.9892 14.3721 1.9892 15.2697C1.9892 16.1673 1.46053 17.4239 0.820574 18.0592C0.403207 18.4734 0.403207 19.1363 0.820574 19.5506C1.23794 19.9649 1.90573 19.9649 2.32309 19.5506L2.96305 18.9153L10.42 11.5273C10.9626 10.9888 11.2408 10.2431 11.1295 9.48357C10.9626 8.36501 11.3521 7.17741 12.326 6.37647C13.6059 5.32696 15.4979 5.35458 16.7361 6.44551C18.2247 7.74359 18.2804 9.99451 16.9031 11.3616C16.1101 12.1488 15.0388 12.4664 14.0093 12.3145C13.2442 12.204 12.479 12.4802 11.9364 13.0188L1.72487 23.1548C1.32141 23.5691 1.33532 24.2319 1.73878 24.6324C2.14223 25.0329 2.81002 25.0467 3.22739 24.6462L7.60973 20.2963C8.0271 19.882 8.69488 19.882 9.11225 20.2963C9.52961 20.7106 9.52961 21.3734 9.11225 21.7877L1.66922 29.1757C1.26576 29.59 1.27968 30.2528 1.68313 30.6533C2.08658 31.0537 2.75437 31.0676 3.17174 30.6671L20.6594 13.3226C21.202 12.784 21.4385 12.0659 21.3272 11.3202C21.1602 10.2017 21.5498 9.01405 22.5236 8.21311C23.8035 7.1636 25.6956 7.19122 26.9338 8.28216C28.4224 9.58023 28.478 11.8312 27.1007 13.1983C26.3077 13.9854 25.2365 14.303 24.207 14.1511C23.4418 14.0406 22.6766 14.3168 22.1341 14.8554L0.625803 36.2046C0.222349 36.6189 0.236261 37.2818 0.639715 37.6822C1.05708 38.0965 1.71095 38.0965 2.12832 37.696L12.1312 27.7671C12.5486 27.3528 13.2163 27.3114 13.6476 27.7119C14.0928 28.1262 14.0928 28.8028 13.6754 29.2309L7.22019 35.6384C6.84456 36.0113 6.78891 36.6327 7.13671 37.0332C7.15063 37.0608 7.17845 37.0746 7.19236 37.1022C7.60973 37.5165 8.27752 37.5165 8.69488 37.1022L20.9376 24.95C21.4802 24.4115 21.7584 23.6658 21.6471 22.9062C21.4802 21.7877 21.8697 20.6001 22.8436 19.7991C24.1235 18.7496 26.0156 18.7773 27.2538 19.8682C28.7424 21.1663 28.798 23.4172 27.4207 24.7843C26.6277 25.5714 25.5565 25.8891 24.527 25.7372C23.7618 25.6267 22.9966 25.9029 22.4541 26.4414L13.0494 35.7765L12.3816 36.4394L10.2252 38.5798C9.80786 38.9941 9.80786 39.657 10.2252 40.0712C10.6426 40.4855 11.3104 40.4855 11.7277 40.0712L15.4284 36.398L22.6349 29.2447C23.0523 28.8304 23.7201 28.8304 24.1374 29.2447C24.5548 29.659 24.5548 30.3219 24.1374 30.7361L17.7935 37.0332L12.5903 42.1979C12.1729 42.6122 12.1729 43.275 12.5903 43.6893C13.0077 44.1036 13.6754 44.1036 14.0928 43.6893L14.3711 43.4131L20.1585 37.6684L30.8709 27.0352C31.4135 26.4967 31.6918 25.751 31.5805 25.0053C31.4135 23.8867 31.817 22.6991 32.7769 21.912C34.0568 20.8625 35.935 20.8901 37.1871 21.981C38.6757 23.2791 38.7313 25.53 37.354 26.8971C36.561 27.6843 35.4759 28.0019 34.4603 27.85C33.6951 27.7395 32.9299 28.0019 32.3874 28.5543L22.5236 38.3036L19.5742 41.2312C19.1569 41.6455 19.1569 42.3084 19.5742 42.7226C19.9916 43.1369 20.6594 43.1369 21.0767 42.7226L23.3862 40.4303C24.0261 39.7951 25.2921 39.2703 26.1964 39.2703C27.1007 39.2703 28.3667 38.7455 29.0067 38.1103L39.4965 27.6981C41.2912 25.9305 42.0007 23.3067 41.3329 20.8625Z" fill="#616161"/>
<path d="M26.0137 23.4629C26.517 22.9622 26.517 22.1693 26.0137 21.6685C25.5105 21.1678 24.7137 21.1678 24.2104 21.6685C23.7072 22.1693 23.7072 22.9622 24.2104 23.4629C24.7137 23.9637 25.5245 23.9637 26.0137 23.4629Z" fill="#616161"/>
<path d="M35.9942 25.5772C36.4974 25.0764 36.4974 24.2836 35.9942 23.7828C35.4909 23.282 34.6941 23.282 34.1909 23.7828C33.6877 24.2836 33.6877 25.0764 34.1909 25.5772C34.6941 26.078 35.5049 26.078 35.9942 25.5772Z" fill="#616161"/>
<path d="M25.7198 11.792C26.223 11.2913 26.223 10.4984 25.7198 9.99764C25.2165 9.49688 24.4197 9.49688 23.9165 9.99764C23.4133 10.4984 23.4133 11.2913 23.9165 11.792C24.4197 12.2928 25.2165 12.2789 25.7198 11.792Z" fill="#616161"/>
<path d="M15.459 9.9561C15.9623 9.45534 15.9623 8.66247 15.459 8.1617C14.9558 7.66094 14.159 7.66094 13.6558 8.1617C13.1525 8.66247 13.1525 9.45534 13.6558 9.9561C14.159 10.4569 14.9558 10.443 15.459 9.9561Z" fill="#616161"/>
<path d="M95.5473 15.0988V8.9908C95.5473 8.9908 95.5473 8.96436 95.5207 8.96436H81.1184C81.1184 8.96436 81.0918 8.96436 81.0918 8.9908C81.0918 12.3753 83.8553 15.0988 87.2301 15.0988H95.5473C95.5207 15.0988 95.5473 15.0988 95.5473 15.0988Z" fill="#616161"/>
<path d="M73.0399 8.96436H62.4109C59.0096 8.96436 56.2461 11.7143 56.2461 15.0988C56.2461 15.0988 56.2461 15.1253 56.2727 15.1253H73.0134C74.0763 15.1253 74.9532 15.9979 74.9532 17.0555V35.0359C74.9532 35.0359 74.9532 35.0623 74.9797 35.0623H81.118C81.118 35.0623 81.1446 35.0623 81.1446 35.0359V16.5267H81.118C80.7991 12.2696 77.2915 8.96436 73.0399 8.96436Z" fill="#616161"/>
<path d="M97.4857 28.8748C96.4228 28.8748 95.5459 28.0022 95.5459 26.9445V18.9327C95.5459 18.9327 95.5459 18.9062 95.5193 18.9062H89.3811C89.3811 18.9062 89.3545 18.9063 89.3545 18.9327V26.9445C89.3545 31.3867 92.9949 35.0093 97.4591 35.0093H103.81C103.81 35.0093 103.837 35.0092 103.837 34.9828V28.8748C103.837 28.8748 103.837 28.8483 103.81 28.8483H97.4857V28.8748Z" fill="#616161"/>
<path d="M118.294 8.96394C118.267 8.96394 118.267 8.96394 118.294 8.96394L118.267 26.9443C118.267 28.002 117.39 28.8745 116.327 28.8745H111.916C110.853 28.8745 109.977 28.002 109.977 26.9443V8.96394C109.977 8.96394 109.977 8.9375 109.95 8.9375H103.812C103.812 8.9375 103.785 8.9375 103.785 8.96394V26.9443C103.785 31.3865 107.426 35.009 111.89 35.009H116.301C120.765 35.009 124.405 31.3865 124.405 26.9443V8.96394C124.405 8.96394 124.405 8.9375 124.379 8.9375H118.294V8.96394Z" fill="#616161"/>
<path d="M159.8 21.9472C160.943 20.5194 161.634 18.7213 161.581 16.7647C161.448 12.4018 157.887 8.96436 153.503 8.96436H140.721C137.346 8.96436 134.61 11.6085 134.61 14.9666L134.636 8.96436C130.172 8.96436 126.531 12.5869 126.531 17.0291V25.0409H132.696H153.476C154.459 25.0409 155.283 25.8077 155.363 26.7861C155.469 27.9231 154.512 28.8485 153.37 28.8485H132.643C129.242 28.8485 126.505 31.5985 126.505 34.9566C126.505 34.9566 126.505 34.983 126.531 34.983H153.29C157.86 34.983 161.687 31.2812 161.554 26.7067C161.501 24.9352 160.863 23.2693 159.8 21.9472ZM153.396 18.9064H132.696V17.0026C132.696 15.9185 133.573 15.0724 134.61 15.0724H153.476C154.459 15.0724 155.283 15.8392 155.363 16.8175C155.496 17.9545 154.539 18.9064 153.396 18.9064Z" fill="#616161"/>
</svg>
