<?xml version="1.0" encoding="utf-8"?><svg viewBox="0 0 28 28" xmlns="http://www.w3.org/2000/svg" xmlns:xlink="http://www.w3.org/1999/xlink"><style>:root>svg{display:none}:root>svg:target{display:block}</style><svg viewBox="0 0 24 24" id="facebook" xmlns="http://www.w3.org/2000/svg"><g clip-path="url(#aclip0_237_1471)"><path d="M24 12c0-6.627-5.373-12-12-12S0 5.373 0 12c0 5.99 4.388 10.954 10.125 11.854V15.47H7.078V12h3.047V9.356c0-3.007 1.792-4.668 4.533-4.668 1.312 0 2.686.234 2.686.234v2.953H15.83c-1.491 0-1.956.925-1.956 1.875V12h3.328l-.532 3.469h-2.796v8.385C19.612 22.954 24 17.99 24 12z"/></g><defs><clipPath id="aclip0_237_1471"><path fill="#fff" d="M0 0h24v24H0z"/></clipPath></defs></svg><svg viewBox="0 0 24 24" id="google" xmlns="http://www.w3.org/2000/svg"><g clip-path="url(#bclip0_237_1469)"><path fill-rule="evenodd" clip-rule="evenodd" d="M16.844 6.548a6.521 6.521 0 00-4.604-1.8c-3.13 0-5.79 2.113-6.737 4.957a7.188 7.188 0 000 4.594h.004c.953 2.84 3.607 4.952 6.738 4.952 1.616 0 3.003-.413 4.078-1.143v-.003a5.555 5.555 0 002.399-3.647H12.24v-4.62H23.56c.141.802.207 1.622.207 2.438 0 3.65-1.304 6.735-3.574 8.825l.003.002C18.206 22.937 15.477 24 12.24 24a12.002 12.002 0 01-10.723-6.61 12.01 12.01 0 010-10.776A11.998 11.998 0 0112.24 0a11.533 11.533 0 018.03 3.122l-3.426 3.426z"/></g><defs><clipPath id="bclip0_237_1469"><path fill="#fff" d="M0 0h24v24H0z"/></clipPath></defs></svg><svg fill="none" viewBox="0 0 28 28" id="ico-arrow" xmlns="http://www.w3.org/2000/svg"><path d="M14 4.667c.645 0 1.167.522 1.167 1.167V19.35l5.009-5.008a1.167 1.167 0 011.65 1.65l-7 7a1.166 1.166 0 01-1.65 0l-7-7a1.167 1.167 0 111.65-1.65l5.008 5.008V5.834c0-.645.522-1.167 1.167-1.167z" fill="#BFBFBF"/></svg><svg fill="none" viewBox="0 0 24 24" id="ico-arrow-link" xmlns="http://www.w3.org/2000/svg"><path d="M12.293 5.293a1 1 0 011.414 0l6 6a1 1 0 010 1.414l-6 6a1 1 0 01-1.414-1.414L16.586 13H5a1 1 0 110-2h11.586l-4.293-4.293a1 1 0 010-1.414z" fill="#fff"/></svg><svg fill="none" viewBox="0 0 24 24" id="ico-close" xmlns="http://www.w3.org/2000/svg"><path d="M.822.821c.65-.65 1.706-.65 2.357 0L12 9.643 20.822.82a1.667 1.667 0 112.357 2.357L14.357 12l8.822 8.821a1.667 1.667 0 01-2.357 2.357L12 14.357 3.18 23.178a1.667 1.667 0 11-2.357-2.357L9.643 12 .822 3.178a1.667 1.667 0 010-2.357z" fill="#fff"/></svg><svg viewBox="0 0 24 24" id="instagram" xmlns="http://www.w3.org/2000/svg"><g clip-path="url(#fclip0_237_1467)"><path d="M12 2.16c3.206 0 3.586.015 4.847.071 1.172.052 1.805.249 2.226.413a3.71 3.71 0 011.379.895c.421.422.68.82.895 1.378.164.422.36 1.06.412 2.227.057 1.265.07 1.645.07 4.847 0 3.206-.013 3.586-.07 4.846-.051 1.172-.248 1.805-.412 2.227-.216.558-.478.961-.895 1.378a3.69 3.69 0 01-1.379.895c-.421.165-1.059.361-2.226.413-1.266.056-1.645.07-4.847.07-3.206 0-3.586-.014-4.847-.07-1.172-.052-1.805-.248-2.226-.413a3.71 3.71 0 01-1.379-.895 3.691 3.691 0 01-.895-1.378c-.164-.422-.36-1.06-.412-2.227-.057-1.265-.07-1.645-.07-4.846 0-3.207.013-3.586.07-4.847.051-1.172.248-1.805.412-2.227.216-.558.478-.96.895-1.378.422-.422.82-.68 1.379-.895.421-.164 1.059-.361 2.226-.413 1.261-.056 1.64-.07 4.847-.07zM12 0C8.742 0 8.334.014 7.055.07 5.78.127 4.903.333 4.144.628a5.857 5.857 0 00-2.128 1.388A5.88 5.88 0 00.628 4.139C.333 4.903.127 5.775.07 7.05.014 8.334 0 8.742 0 12s.014 3.666.07 4.945c.057 1.275.263 2.152.558 2.911.31.792.717 1.463 1.388 2.128a5.866 5.866 0 002.123 1.383c.764.296 1.636.502 2.911.558 1.28.056 1.688.07 4.945.07 3.258 0 3.666-.014 4.946-.07 1.275-.056 2.151-.262 2.91-.558a5.866 5.866 0 002.124-1.383 5.866 5.866 0 001.383-2.123c.295-.764.501-1.636.558-2.911.056-1.28.07-1.688.07-4.945 0-3.258-.014-3.666-.07-4.946-.057-1.275-.263-2.151-.558-2.91a5.62 5.62 0 00-1.374-2.133A5.866 5.866 0 0019.861.633C19.097.338 18.225.13 16.95.075 15.666.015 15.258 0 12 0z"/><path d="M12 5.836A6.166 6.166 0 005.836 12 6.166 6.166 0 0012 18.164 6.166 6.166 0 0018.164 12 6.166 6.166 0 0012 5.836zm0 10.162A3.999 3.999 0 1112.001 8 3.999 3.999 0 0112 15.998zM19.847 5.592a1.44 1.44 0 11-2.879 0 1.44 1.44 0 012.879 0z"/></g><defs><clipPath id="fclip0_237_1467"><path fill="#fff" d="M0 0h24v24H0z"/></clipPath></defs></svg><svg viewBox="0 0 24 24" id="linkedin" xmlns="http://www.w3.org/2000/svg"><g clip-path="url(#gclip0_237_1474)"><path d="M22.223 0H1.772C.792 0 0 .773 0 1.73v20.536C0 23.222.792 24 1.772 24h20.451c.98 0 1.777-.778 1.777-1.73V1.73C24 .773 23.203 0 22.223 0zM7.12 20.452H3.558V8.995H7.12v11.457zM5.34 7.434a2.064 2.064 0 110-4.125 2.063 2.063 0 010 4.125zm15.112 13.018h-3.558v-5.57c0-1.326-.024-3.037-1.852-3.037-1.851 0-2.133 1.449-2.133 2.944v5.663H9.356V8.995h3.413v1.566h.047c.473-.9 1.636-1.852 3.365-1.852 3.605 0 4.27 2.372 4.27 5.457v6.286z"/></g><defs><clipPath id="gclip0_237_1474"><path fill="#fff" d="M0 0h24v24H0z"/></clipPath></defs></svg><svg viewBox="0 0 24 24" id="medium" xmlns="http://www.w3.org/2000/svg"><path d="M13.537 11.828c0 3.77-3.03 6.827-6.768 6.827S0 15.598 0 11.828 3.03 5 6.769 5c3.738 0 6.768 3.057 6.768 6.828zM20.963 11.828c0 3.549-1.516 6.427-3.385 6.427-1.869 0-3.384-2.878-3.384-6.427 0-3.55 1.515-6.428 3.384-6.428 1.87 0 3.384 2.877 3.384 6.428M24 11.828c0 3.179-.533 5.758-1.19 5.758-.658 0-1.19-2.578-1.19-5.758s.532-5.759 1.19-5.759c.657 0 1.19 2.578 1.19 5.759z"/></svg><svg viewBox="0 0 24 24" id="skype" xmlns="http://www.w3.org/2000/svg"><path d="M12.048 19.223c-3.987 0-5.809-2.031-5.809-3.52a1.292 1.292 0 011.363-1.293c1.707 0 1.26 2.56 4.446 2.56 1.627 0 2.584-.98 2.584-1.9 0-.553-.316-1.185-1.391-1.438l-3.556-.897c-2.857-.727-3.355-2.316-3.355-3.79 0-3.058 2.798-4.164 5.46-4.164 2.455 0 5.37 1.355 5.37 3.189 0 .79-.66 1.213-1.426 1.213-1.458 0-1.213-2.047-4.145-2.047-1.458 0-2.224.684-2.224 1.64 0 .956 1.134 1.28 2.13 1.497l2.623.593c2.877.648 3.643 2.335 3.643 3.951 0 2.486-1.924 4.406-5.717 4.406h.004zm11.008-5.26c.114-.652.17-1.313.17-1.975A11.23 11.23 0 0010.052.881 6.606 6.606 0 006.742 0 6.717 6.717 0 00.944 10.04 11.237 11.237 0 0013.952 23.12 6.602 6.602 0 0017.26 24a6.717 6.717 0 005.797-10.036z"/></svg><svg viewBox="0 0 24 24" id="telegram" xmlns="http://www.w3.org/2000/svg"><g clip-path="url(#jclip0_237_1476)"><path fill-rule="evenodd" clip-rule="evenodd" d="M24 12c0 6.627-5.373 12-12 12S0 18.627 0 12 5.373 0 12 0s12 5.373 12 12zM12.43 8.859c-1.167.485-3.5 1.49-6.998 3.014-.568.226-.866.447-.893.663-.046.366.412.51 1.034.705.085.027.173.054.263.084.613.199 1.437.432 1.865.441.389.008.823-.152 1.302-.48 3.268-2.207 4.955-3.322 5.061-3.346.075-.017.179-.039.249.024.07.062.063.18.056.212-.046.193-1.84 1.862-2.77 2.726-.29.269-.495.46-.537.504-.094.097-.19.19-.282.279-.57.548-.996.96.024 1.632.49.323.882.59 1.273.856.427.291.853.581 1.405.943.14.092.274.187.405.28.497.355.944.673 1.496.623.32-.03.652-.331.82-1.23.397-2.126 1.179-6.73 1.36-8.628a2.123 2.123 0 00-.02-.472.506.506 0 00-.172-.325c-.143-.117-.365-.142-.465-.14-.451.008-1.143.249-4.476 1.635z"/></g><defs><clipPath id="jclip0_237_1476"><path fill="#fff" d="M0 0h24v24H0z"/></clipPath></defs></svg><svg viewBox="0 0 24 24" id="tiktok" xmlns="http://www.w3.org/2000/svg"><path d="M17.073 0h-4.045v16.348c0 1.948-1.556 3.548-3.492 3.548s-3.491-1.6-3.491-3.548c0-1.913 1.52-3.478 3.388-3.548V8.696C5.319 8.766 2 12.139 2 16.348 2 20.59 5.388 24 9.57 24c4.184 0 7.572-3.444 7.572-7.652V7.965A9.366 9.366 0 0022.5 9.774V5.67c-3.042-.105-5.427-2.61-5.427-5.67z"/></svg><svg viewBox="0 0 24 24" id="twitter" xmlns="http://www.w3.org/2000/svg"><g clip-path="url(#lclip0_237_1468)"><path d="M7.55 21.75c9.055 0 14.008-7.503 14.008-14.008 0-.21-.004-.426-.014-.637A9.999 9.999 0 0024 4.555c-.898.4-1.85.66-2.826.774a4.95 4.95 0 002.165-2.723 9.897 9.897 0 01-3.126 1.195 4.93 4.93 0 00-8.394 4.49A13.985 13.985 0 011.673 3.15a4.93 4.93 0 001.523 6.57 4.93 4.93 0 01-2.23-.614v.061a4.922 4.922 0 003.95 4.828 4.894 4.894 0 01-2.221.085A4.934 4.934 0 007.292 17.5 9.875 9.875 0 010 19.54a13.969 13.969 0 007.55 2.211z"/></g><defs><clipPath id="lclip0_237_1468"><path fill="#fff" d="M0 0h24v24H0z"/></clipPath></defs></svg><svg viewBox="0 0 24 24" id="youtube" xmlns="http://www.w3.org/2000/svg"><path d="M23.76 7.2s-.233-1.655-.955-2.381c-.914-.957-1.936-.961-2.405-1.018-3.356-.243-8.395-.243-8.395-.243h-.01s-5.039 0-8.395.243c-.469.057-1.49.061-2.405 1.018-.722.726-.951 2.38-.951 2.38S0 9.146 0 11.087v1.819c0 1.94.24 3.885.24 3.885s.233 1.655.95 2.382c.915.956 2.115.923 2.65 1.026 1.92.183 8.16.24 8.16.24s5.044-.01 8.4-.25c.469-.055 1.49-.06 2.405-1.016.722-.727.956-2.382.956-2.382S24 14.85 24 12.905v-1.82c0-1.94-.24-3.885-.24-3.885zM9.52 15.112V8.367l6.483 3.384-6.483 3.361z"/></svg></svg>